<svg width="512" height="512" viewBox="0 0 512 512" fill="none" xmlns="http://www.w3.org/2000/svg">
  <title>Curation logo</title>
  <defs>
    <linearGradient id="bg" x1="96" y1="72" x2="438" y2="458" gradientUnits="userSpaceOnUse">
      <stop stop-color="#123B3B"/>
      <stop offset="1" stop-color="#082323"/>
    </linearGradient>
    <linearGradient id="cyan" x1="95" y1="358" x2="333" y2="137" gradientUnits="userSpaceOnUse">
      <stop stop-color="#2DE2E6"/>
      <stop offset="1" stop-color="#57F6B5"/>
    </linearGradient>
    <linearGradient id="amber" x1="227" y1="123" x2="407" y2="255" gradientUnits="userSpaceOnUse">
      <stop stop-color="#FFE16A"/>
      <stop offset="1" stop-color="#FFAA1B"/>
    </linearGradient>
    <filter id="glow" x="-20%" y="-20%" width="140%" height="140%">
      <feGaussianBlur stdDeviation="8" result="blur"/>
      <feColorMatrix in="blur" type="matrix" values="0 0 0 0 0.12 0 0 0 0 0.93 0 0 0 0 0.86 0 0 0 0.35 0"/>
      <feBlend in="SourceGraphic"/>
    </filter>
  </defs>
  <rect x="32" y="32" width="448" height="448" rx="108" fill="url(#bg)"/>
  <path d="M372 199A136 118 0 0 1 155 343" stroke="url(#cyan)" stroke-width="42" stroke-linecap="round"/>
  <path d="M236 167A91 86 0 0 1 377 274" stroke="url(#amber)" stroke-width="42" stroke-linecap="round"/>
  <path d="M181 337L139 369" stroke="#5AF7CC" stroke-width="28" stroke-linecap="round" opacity=".82"/>
  <path d="M154 182A99 97 0 0 1 263 142" stroke="#D6FFF4" stroke-width="12" stroke-linecap="round" opacity=".5"/>
  <circle cx="256" cy="256" r="50" fill="#112F2F"/>
  <circle cx="256" cy="256" r="31" fill="#F4C542"/>
  <circle cx="256" cy="256" r="13" fill="#FFF7C2"/>
  <circle cx="236" cy="170" r="20" fill="#FFB724"/>
  <circle cx="357" cy="151" r="13" fill="#FFE680"/>
  <circle cx="384" cy="274" r="22" fill="#FFB724"/>
  <circle cx="139" cy="340" r="12" fill="#35E6E6" filter="url(#glow)"/>
</svg>
